<?xml version="1.0" encoding="utf-8"?>
<!-- Generator: Adobe Illustrator 23.1.1, SVG Export Plug-In . SVG Version: 6.00 Build 0)  -->
<svg version="1.1" id="Layer_1" xmlns="http://www.w3.org/2000/svg" xmlns:xlink="http://www.w3.org/1999/xlink" x="0px" y="0px"
	 viewBox="0 0 185.3 212.5" style="enable-background:new 0 0 185.3 212.5;" xml:space="preserve">
<style type="text/css">
	.st0{fill:#FFFFFF;}
	.st1{fill:#E87400;}
	.st2{fill:#F7CC19;}
</style>
<rect x="-15" class="st0" width="215.4" height="215.4"/>
<title>Asset 3</title>
<g>
	<g id="Layer_1-2">
		<path class="st1" d="M141,101.6l-47.1,48.2c-1.7-3.9-2.5-8.2-2.5-12.5c0-19.7,16.5-35.7,49.4-35.7L141,101.6z"/>
		<path class="st1" d="M168.1,0l-0.6,74.6l-20.7,21.2c-2-0.1-3.9-0.2-5.9-0.2c-16.8,0-30.9,4.1-40.7,11.8
			c-9.3,7.2-14.7,18.3-14.7,30c-0.1,5.9,1.3,11.8,4,17l-30.3,31L0,122.8l0.6-74.6l59.2,62.5L168.1,0z"/>
		<path class="st2" d="M185.3,176.7c0,19.4-16.5,35.7-49.4,35.7c-17.7,0-35.6-4.4-46.2-10.9l11.5-26.1c10.7,6.1,22.7,9.5,35,9.7
			c10.1,0,13.8-2.1,13.8-5.8c0-11.7-45-4.9-56.1-29.6c-1.7-3.9-2.5-8.2-2.5-12.5c0-19.7,16.5-35.7,49.4-35.7h0.2
			c14.2,0,28.8,3.1,39.8,9.2L170,136.8c-10.4-5.3-20.3-7.9-29.5-7.9c-10.4,0-13.8,3-13.8,6.7C126.7,148.3,185.3,137.7,185.3,176.7z"
			/>
	</g>
</g>
</svg>
