<?xml version="1.0" encoding="utf-8"?>
<!-- Generator: Adobe Illustrator 24.0.1, SVG Export Plug-In . SVG Version: 6.00 Build 0)  -->
<svg version="1.1" id="Layer_1" xmlns="http://www.w3.org/2000/svg" xmlns:xlink="http://www.w3.org/1999/xlink" x="0px" y="0px"
	 viewBox="0 0 468 225" style="enable-background:new 0 0 468 225;" xml:space="preserve">
<g>
	<g>
		<g>
			<path d="M164.52,84.53L62.63,185.2L7,128.3l0.58-67.69l55.64,56.71L165.1,16.84L164.52,84.53z"/>
		</g>
	</g>
	<g>
		<path d="M455.77,185.36h-31.63c-6.65,0-12.53-1.15-17.66-3.45c-5.13-2.3-9.09-5.54-11.88-9.72c-2.79-4.18-4.18-9.02-4.18-14.52
			V126.9c0-5.5,1.4-10.34,4.18-14.52c2.79-4.18,6.75-7.42,11.88-9.72c5.13-2.3,11.01-3.45,17.66-3.45h31.63
			c0.58,0,1.03,0.17,1.35,0.49c0.33,0.33,0.49,0.78,0.49,1.35v82.46c0,0.57-0.16,1.03-0.49,1.35
			C456.79,185.19,456.34,185.36,455.77,185.36z M434.48,164.93v-45.29c0-0.41-0.2-0.62-0.62-0.62H423.4c-2.95,0-5.33,1.09-7.14,3.26
			c-1.8,2.17-2.71,5.03-2.71,8.55v22.89c0.08,3.53,1.03,6.38,2.83,8.55c1.81,2.17,4.1,3.26,6.89,3.26h10.58
			C434.27,165.54,434.48,165.34,434.48,164.93z"/>
	</g>
	<g>
		<path d="M167.9,182.57c-5.21-2.75-9.25-6.6-12.12-11.57c-2.87-4.96-4.31-10.73-4.31-17.29v-23.14c0-6.4,1.43-12.06,4.31-16.98
			c2.87-4.92,6.91-8.74,12.12-11.45c5.21-2.71,11.22-4.06,18.03-4.06c6.89,0,12.94,1.35,18.15,4.06c5.21,2.71,9.25,6.52,12.12,11.45
			c2.87,4.92,4.31,10.58,4.31,16.98v23.14c0,6.57-1.44,12.33-4.31,17.29c-2.87,4.97-6.91,8.82-12.12,11.57
			c-5.21,2.75-11.26,4.12-18.15,4.12C179.11,186.69,173.11,185.32,167.9,182.57z M194.23,163.5c2.09-2.26,3.14-5.27,3.14-9.04
			v-24.12c0-3.77-1.04-6.79-3.14-9.05c-2.09-2.26-4.86-3.38-8.31-3.38c-3.37,0-6.09,1.13-8.18,3.38c-2.09,2.26-3.14,5.27-3.14,9.05
			v24.12c0,3.77,1.05,6.79,3.14,9.04c2.09,2.26,4.82,3.38,8.18,3.38C189.37,166.88,192.14,165.75,194.23,163.5z"/>
		<path d="M299.89,99.56c0.33,0.33,0.49,0.78,0.49,1.35v16.25c0,0.57-0.17,1.03-0.49,1.35c-0.33,0.33-0.78,0.49-1.35,0.49h-20.67
			c-0.41,0-0.62,0.21-0.62,0.62v63.75c0,0.57-0.17,1.03-0.49,1.35c-0.33,0.33-0.78,0.49-1.35,0.49h-19.44
			c-0.58,0-1.03-0.16-1.35-0.49c-0.33-0.33-0.49-0.78-0.49-1.35v-63.75c0-0.41-0.21-0.62-0.62-0.62h-20.06
			c-0.58,0-1.03-0.16-1.35-0.49c-0.33-0.33-0.49-0.78-0.49-1.35v-16.25c0-0.57,0.16-1.02,0.49-1.35c0.33-0.33,0.78-0.49,1.35-0.49
			h65.1C299.11,99.07,299.56,99.24,299.89,99.56z"/>
		<path d="M375.45,118.39c-0.33,0.33-0.78,0.49-1.35,0.49h-36.8c-0.41,0-0.62,0.21-0.62,0.62v11.57c0,0.41,0.2,0.62,0.62,0.62h22.77
			c0.57,0,1.03,0.17,1.35,0.49c0.33,0.33,0.49,0.78,0.49,1.35v16c0,0.57-0.17,1.03-0.49,1.35c-0.33,0.33-0.78,0.49-1.35,0.49H337.3
			c-0.41,0-0.62,0.21-0.62,0.62v12.8c0,0.41,0.2,0.62,0.62,0.62h36.8c0.57,0,1.02,0.17,1.35,0.49c0.33,0.33,0.49,0.78,0.49,1.35
			v16.12c0,0.57-0.17,1.03-0.49,1.35c-0.33,0.33-0.78,0.49-1.35,0.49h-58.7c-0.58,0-1.03-0.16-1.35-0.49
			c-0.33-0.33-0.49-0.78-0.49-1.35v-82.46c0-0.57,0.16-1.02,0.49-1.35c0.33-0.33,0.78-0.49,1.35-0.49h58.7
			c0.57,0,1.02,0.17,1.35,0.49c0.33,0.33,0.49,0.78,0.49,1.35v16.12C375.94,117.61,375.78,118.06,375.45,118.39z"/>
	</g>
</g>
</svg>
