<svg xmlns="http://www.w3.org/2000/svg" viewBox="0 0 185.32 212.46"><defs><style>.cls-1{fill:#e87400;}.cls-2{fill:#f7cc19;}</style></defs><title>logo</title><g id="Layer_2" data-name="Layer 2"><g id="Layer_1-2" data-name="Layer 1"><path class="cls-1" d="M141,101.62,93.91,149.86a30.1,30.1,0,0,1-2.47-12.5c0-19.69,16.51-35.74,49.36-35.74Z"/><path class="cls-1" d="M168.09,0l-.62,74.56L146.74,95.79c-2-.12-3.94-.17-5.94-.17-16.84,0-30.91,4.07-40.71,11.77a37.48,37.48,0,0,0-14.65,30,35.1,35.1,0,0,0,4,17l-30.32,31L0,122.78.62,48.22l59.15,62.47Z"/><path class="cls-2" d="M185.32,176.73c0,19.38-16.5,35.73-49.36,35.73-17.72,0-35.58-4.39-46.18-10.9l11.5-26.05a72.69,72.69,0,0,0,35,9.69c10.15,0,13.78-2.12,13.78-5.75,0-11.67-45-4.86-56.13-29.59a30.1,30.1,0,0,1-2.47-12.5c0-19.69,16.51-35.74,49.36-35.74H141c14.17,0,28.75,3.06,39.75,9.24L170,136.75c-10.45-5.3-20.29-7.87-29.53-7.87-10.45,0-13.78,3-13.78,6.66,0,12.72,58.6,2.12,58.6,41.19"/></g></g></svg>